<svg xmlns="http://www.w3.org/2000/svg" width="443.972" height="803.841" viewBox="0 0 117.467 212.683"><path fill="#142a62" d="M55.873 212.58c-30.699-1.876-54.531-25.816-55.74-55.99L0 153.256l1.548 3.048c23.79 46.845 91.635 46.471 114.67-.631.583-1.193 1.093-2.201 1.134-2.242.428-.428-.415 8.466-1.155 12.192-5.604 28.206-31.923 48.694-60.324 46.957zm.322-32.035c-32.237-2.154-50.595-37.372-33.833-64.904 18.028-29.61 62.755-25.998 75.795 6.122 11.79 29.04-10.922 60.856-41.962 58.782zM53.937 84.84c-18.224-3.253-28.4-25.345-17.526-38.044 2.424-2.83 2.57-3.475 1.743-7.7-.966-4.933-.285-7.574 2.772-10.754l1.488-1.548-.472.968c-.31.634-.5 1.486-.549 2.473-.081 1.636-.17 1.41 2.484 6.345 1.632 3.033 1.784 6.22.47 9.856L43.165 49.7c-2.378 6.545 3.732 11.913 8.479 7.45 2.308-2.17 2.29-4.754-.07-9.816-3.209-6.882-3.054-10.833.752-19.238 2.413-5.33 2.694-7.012 2.048-12.276-1.24-10.094-.631-13.323 2.87-15.229L58.33 0l-.737 1.094c-1.944 2.889-1.279 5.242 3.316 11.73 9.28 13.11 10.576 20.661 5.549 32.358-3.08 7.169-3.28 9.53-.995 11.815 3.605 3.605 9.24 1.09 9.225-4.119-.005-1.583-.063-1.792-1.871-6.728-1.321-3.605-.902-7.202 1.268-10.872 2.078-3.514 2.326-4.82 1.366-7.194l-.52-1.29 1.452 1.535c2.766 2.923 3.622 5.704 2.947 9.572-1.043 5.973-1.114 5.567 1.54 8.898 13.22 16.594-4.764 41.998-26.932 38.041z"/></svg>